<mxfile host="app.diagrams.net" modified="2023-05-27T13:44:16.643Z" agent="Mozilla/5.0 (Windows NT 10.0; Win64; x64) AppleWebKit/537.36 (KHTML, like Gecko) Chrome/113.0.0.0 Safari/537.36" etag="_bo9oBfwIKwHa8OjSKI4" version="21.3.4" type="device">
  <diagram name="第 1 页" id="e5b_JDWqv2wqmYYrKwgO">
    <mxGraphModel dx="2333" dy="1202" grid="1" gridSize="10" guides="1" tooltips="1" connect="1" arrows="1" fold="1" page="1" pageScale="1" pageWidth="827" pageHeight="1169" math="0" shadow="0">
      <root>
        <mxCell id="0" />
        <mxCell id="1" parent="0" />
        <mxCell id="bj1P5GpkkNR5_Ors-_xh-19" value="" style="group;fontFamily=宋体;fontSize=15;" vertex="1" connectable="0" parent="1">
          <mxGeometry x="810" y="30" width="750" height="810" as="geometry" />
        </mxCell>
        <mxCell id="bj1P5GpkkNR5_Ors-_xh-3" value="" style="whiteSpace=wrap;html=1;strokeWidth=1;fontFamily=宋体;fontSize=14;" vertex="1" parent="bj1P5GpkkNR5_Ors-_xh-19">
          <mxGeometry width="750" height="810" as="geometry" />
        </mxCell>
        <mxCell id="bj1P5GpkkNR5_Ors-_xh-6" value="村证数据加密管理系统" style="rounded=0;whiteSpace=wrap;html=1;fontFamily=宋体;fontSize=14;" vertex="1" parent="bj1P5GpkkNR5_Ors-_xh-19">
          <mxGeometry width="750" height="50" as="geometry" />
        </mxCell>
        <mxCell id="bj1P5GpkkNR5_Ors-_xh-18" value="" style="endArrow=none;dashed=1;html=1;dashPattern=1 3;strokeWidth=2;rounded=0;entryX=-0.003;entryY=0.359;entryDx=0;entryDy=0;exitX=0.998;exitY=0.357;exitDx=0;exitDy=0;entryPerimeter=0;exitPerimeter=0;fontFamily=宋体;fontSize=14;" edge="1" parent="bj1P5GpkkNR5_Ors-_xh-19">
          <mxGeometry width="50" height="50" relative="1" as="geometry">
            <mxPoint x="750" y="280" as="sourcePoint" />
            <mxPoint x="-1" y="282" as="targetPoint" />
          </mxGeometry>
        </mxCell>
        <mxCell id="bj1P5GpkkNR5_Ors-_xh-10" value="" style="endArrow=none;dashed=1;html=1;dashPattern=1 3;strokeWidth=2;rounded=0;entryX=-0.003;entryY=0.359;entryDx=0;entryDy=0;exitX=0.998;exitY=0.357;exitDx=0;exitDy=0;entryPerimeter=0;exitPerimeter=0;fontFamily=宋体;fontSize=14;" edge="1" parent="bj1P5GpkkNR5_Ors-_xh-19">
          <mxGeometry width="50" height="50" relative="1" as="geometry">
            <mxPoint x="750" y="540" as="sourcePoint" />
            <mxPoint x="-1" y="542" as="targetPoint" />
          </mxGeometry>
        </mxCell>
        <mxCell id="bj1P5GpkkNR5_Ors-_xh-12" value="用户界面层" style="text;html=1;strokeColor=none;fillColor=none;align=center;verticalAlign=middle;whiteSpace=wrap;rounded=0;fontFamily=宋体;fontSize=14;" vertex="1" parent="bj1P5GpkkNR5_Ors-_xh-19">
          <mxGeometry x="41" y="140" width="89" height="30" as="geometry" />
        </mxCell>
        <mxCell id="bj1P5GpkkNR5_Ors-_xh-14" value="后端逻辑层" style="text;html=1;strokeColor=none;fillColor=none;align=center;verticalAlign=middle;whiteSpace=wrap;rounded=0;fontFamily=宋体;fontSize=14;" vertex="1" parent="bj1P5GpkkNR5_Ors-_xh-19">
          <mxGeometry x="41" y="380" width="89" height="30" as="geometry" />
        </mxCell>
        <mxCell id="bj1P5GpkkNR5_Ors-_xh-20" value="" style="rounded=0;whiteSpace=wrap;html=1;fontFamily=宋体;fontSize=14;" vertex="1" parent="bj1P5GpkkNR5_Ors-_xh-19">
          <mxGeometry x="160" y="80" width="570" height="170" as="geometry" />
        </mxCell>
        <mxCell id="bj1P5GpkkNR5_Ors-_xh-22" value="" style="rounded=0;whiteSpace=wrap;html=1;fontFamily=宋体;fontSize=14;" vertex="1" parent="bj1P5GpkkNR5_Ors-_xh-19">
          <mxGeometry x="160" y="320" width="570" height="170" as="geometry" />
        </mxCell>
        <mxCell id="bj1P5GpkkNR5_Ors-_xh-21" value="" style="rounded=0;whiteSpace=wrap;html=1;fontFamily=宋体;fontSize=14;" vertex="1" parent="bj1P5GpkkNR5_Ors-_xh-19">
          <mxGeometry x="160" y="590" width="570" height="170" as="geometry" />
        </mxCell>
        <mxCell id="bj1P5GpkkNR5_Ors-_xh-23" value="UmiJS" style="rounded=0;whiteSpace=wrap;html=1;fontFamily=宋体;fontSize=14;" vertex="1" parent="bj1P5GpkkNR5_Ors-_xh-19">
          <mxGeometry x="200" y="110" width="230" height="40" as="geometry" />
        </mxCell>
        <mxCell id="bj1P5GpkkNR5_Ors-_xh-25" value="Ant-Design" style="rounded=0;whiteSpace=wrap;html=1;fontFamily=宋体;fontSize=14;" vertex="1" parent="bj1P5GpkkNR5_Ors-_xh-19">
          <mxGeometry x="200" y="170" width="100" height="40" as="geometry" />
        </mxCell>
        <mxCell id="bj1P5GpkkNR5_Ors-_xh-28" value="AntV" style="rounded=0;whiteSpace=wrap;html=1;fontFamily=宋体;fontSize=14;" vertex="1" parent="bj1P5GpkkNR5_Ors-_xh-19">
          <mxGeometry x="330" y="170" width="100" height="40" as="geometry" />
        </mxCell>
        <mxCell id="bj1P5GpkkNR5_Ors-_xh-27" value="React" style="rounded=0;whiteSpace=wrap;html=1;fontFamily=宋体;fontSize=14;" vertex="1" parent="bj1P5GpkkNR5_Ors-_xh-19">
          <mxGeometry x="460" y="170" width="100" height="40" as="geometry" />
        </mxCell>
        <mxCell id="bj1P5GpkkNR5_Ors-_xh-29" value="Axios" style="rounded=0;whiteSpace=wrap;html=1;fontFamily=宋体;fontSize=14;" vertex="1" parent="bj1P5GpkkNR5_Ors-_xh-19">
          <mxGeometry x="590" y="170" width="100" height="40" as="geometry" />
        </mxCell>
        <mxCell id="bj1P5GpkkNR5_Ors-_xh-30" value="React-Router" style="rounded=0;whiteSpace=wrap;html=1;fontFamily=宋体;fontSize=14;" vertex="1" parent="bj1P5GpkkNR5_Ors-_xh-19">
          <mxGeometry x="460" y="110" width="230" height="40" as="geometry" />
        </mxCell>
        <mxCell id="bj1P5GpkkNR5_Ors-_xh-32" value="Express" style="text;html=1;strokeColor=none;fillColor=none;align=center;verticalAlign=middle;whiteSpace=wrap;rounded=0;fontFamily=宋体;fontSize=14;" vertex="1" parent="bj1P5GpkkNR5_Ors-_xh-19">
          <mxGeometry x="170" y="330" width="60" height="30" as="geometry" />
        </mxCell>
        <mxCell id="bj1P5GpkkNR5_Ors-_xh-37" value="注册登录" style="rounded=0;whiteSpace=wrap;html=1;fontFamily=宋体;fontSize=14;" vertex="1" parent="bj1P5GpkkNR5_Ors-_xh-19">
          <mxGeometry x="200" y="370" width="100" height="70" as="geometry" />
        </mxCell>
        <mxCell id="bj1P5GpkkNR5_Ors-_xh-38" value="个人信息管理" style="rounded=0;whiteSpace=wrap;html=1;fontFamily=宋体;fontSize=14;" vertex="1" parent="bj1P5GpkkNR5_Ors-_xh-19">
          <mxGeometry x="460" y="370" width="100" height="70" as="geometry" />
        </mxCell>
        <mxCell id="bj1P5GpkkNR5_Ors-_xh-39" value="JWT" style="rounded=0;whiteSpace=wrap;html=1;fontFamily=宋体;fontSize=14;" vertex="1" parent="bj1P5GpkkNR5_Ors-_xh-19">
          <mxGeometry x="330" y="370" width="100" height="67.5" as="geometry" />
        </mxCell>
        <mxCell id="bj1P5GpkkNR5_Ors-_xh-40" value="证据管理" style="rounded=0;whiteSpace=wrap;html=1;fontFamily=宋体;fontSize=14;" vertex="1" parent="bj1P5GpkkNR5_Ors-_xh-19">
          <mxGeometry x="590" y="370" width="100" height="70" as="geometry" />
        </mxCell>
        <mxCell id="bj1P5GpkkNR5_Ors-_xh-41" value="组织区块链节点" style="rounded=0;whiteSpace=wrap;html=1;fontFamily=宋体;fontSize=14;" vertex="1" parent="bj1P5GpkkNR5_Ors-_xh-19">
          <mxGeometry x="240" y="645" width="170" height="60" as="geometry" />
        </mxCell>
        <mxCell id="bj1P5GpkkNR5_Ors-_xh-42" value="智能合约" style="rounded=0;whiteSpace=wrap;html=1;fontFamily=宋体;fontSize=14;" vertex="1" parent="bj1P5GpkkNR5_Ors-_xh-19">
          <mxGeometry x="470" y="645" width="170" height="60" as="geometry" />
        </mxCell>
        <mxCell id="bj1P5GpkkNR5_Ors-_xh-13" value="区块链网络层" style="text;html=1;strokeColor=none;fillColor=none;align=center;verticalAlign=middle;whiteSpace=wrap;rounded=0;fontFamily=宋体;fontSize=14;" vertex="1" parent="bj1P5GpkkNR5_Ors-_xh-19">
          <mxGeometry x="41" y="660" width="99" height="30" as="geometry" />
        </mxCell>
        <mxCell id="bj1P5GpkkNR5_Ors-_xh-45" value="Hyperledger Fabric" style="text;html=1;strokeColor=none;fillColor=none;align=center;verticalAlign=middle;whiteSpace=wrap;rounded=0;fontFamily=宋体;fontSize=14;" vertex="1" parent="bj1P5GpkkNR5_Ors-_xh-19">
          <mxGeometry x="170" y="600" width="150" height="30" as="geometry" />
        </mxCell>
      </root>
    </mxGraphModel>
  </diagram>
</mxfile>
